<?xml version="1.0" standalone="no"?>
<!DOCTYPE svg PUBLIC "-//W3C//DTD SVG 20010904//EN"
 "http://www.w3.org/TR/2001/REC-SVG-20010904/DTD/svg10.dtd">
<svg version="1.0" xmlns="http://www.w3.org/2000/svg"
 width="236.000000pt" height="176.000000pt" viewBox="0 0 236.000000 176.000000"
 preserveAspectRatio="xMidYMid meet">
<metadata>
Created by potrace 1.16, written by Peter Selinger 2001-2019
</metadata>
<g transform="translate(0.000000,176.000000) scale(0.100000,-0.100000)"
fill="#000000" stroke="none">
<path d="M639 1459 c-119 -28 -276 -137 -352 -243 -27 -38 -4 -24 39 24 60 67
253 152 373 166 45 5 61 11 61 22 0 12 -11 14 -62 9 -67 -5 -53 7 27 23 l40 8
-45 0 c-25 0 -61 -4 -81 -9z"/>
<path d="M1724 1386 c-90 -33 -151 -72 -223 -142 -64 -62 -64 -64 -46 -84 22
-24 41 -26 49 -4 3 8 11 12 17 9 7 -5 4 -14 -7 -26 -17 -19 -17 -20 0 -13 12
5 17 2 16 -7 -4 -25 0 -39 10 -39 5 0 7 6 5 13 -3 6 15 35 40 62 24 28 49 56
55 62 8 9 8 19 0 33 -6 11 -13 20 -16 20 -2 0 0 -9 6 -19 7 -15 7 -19 -5 -17
-8 1 -18 6 -22 11 -4 4 -2 5 6 0 10 -6 12 -4 7 4 -6 9 -11 9 -22 0 -8 -6 -14
-8 -14 -5 0 4 -7 1 -15 -8 -8 -8 -15 -19 -15 -25 0 -6 -5 -11 -10 -11 -39 0
93 123 170 159 44 20 71 25 135 26 97 0 224 -35 221 -61 -1 -21 20 -30 27 -11
3 7 -10 23 -30 37 -91 62 -229 77 -339 36z"/>
<path d="M590 1354 c-41 -14 -76 -30 -78 -35 -2 -5 -9 -9 -16 -9 -26 0 -165
-133 -166 -157 0 -7 -5 -13 -12 -13 -6 0 -8 -3 -4 -7 4 -5 14 1 22 11 8 11 14
16 14 10 0 -5 -11 -22 -25 -39 -18 -22 -23 -25 -19 -10 5 16 4 17 -4 6 -7 -10
-7 -21 -1 -32 11 -21 12 -40 2 -37 -5 0 -16 -2 -25 -6 -16 -7 -16 -11 -3 -36
8 -16 16 -39 16 -52 1 -20 2 -20 6 -3 2 11 8 29 13 40 5 11 11 27 13 35 3 8 6
3 6 -12 1 -15 -3 -30 -9 -33 -12 -8 -13 -72 -1 -79 5 -4 7 3 4 14 -3 11 -1 26
4 33 6 6 13 29 16 49 15 96 113 240 191 280 48 25 168 58 211 58 17 0 43 8 58
19 l28 18 -53 6 c-83 10 -108 8 -188 -19z"/>
<path d="M2098 1299 c-7 -20 17 -84 31 -81 9 2 9 -3 1 -19 -9 -16 -9 -24 0
-33 8 -8 10 -6 5 9 -6 18 -5 18 5 2 6 -9 8 -22 5 -27 -3 -6 -2 -10 4 -10 9 0
34 -68 46 -127 9 -43 23 -50 31 -17 10 38 -12 148 -40 203 -32 62 -81 118 -88
100z"/>
<path d="M2057 1003 c1 -49 5 -99 9 -112 5 -16 4 -22 -3 -18 -7 5 -9 0 -6 -13
3 -11 11 -20 19 -20 7 0 12 -9 11 -19 -1 -13 -7 -18 -19 -16 -23 5 -23 3 7
-29 30 -32 34 -32 66 2 34 36 52 70 43 84 -4 7 -3 8 4 4 18 -11 8 75 -14 120
-16 33 -93 104 -112 104 -4 0 -6 -39 -5 -87z"/>
<path d="M1249 843 c-119 -208 -219 -311 -349 -354 -19 -7 -14 -8 19 -5 71 7
180 67 250 138 66 67 171 214 171 240 0 12 -37 38 -55 38 -2 0 -18 -26 -36
-57z"/>
<path d="M250 880 c0 -9 40 -134 56 -175 7 -17 6 -18 -8 -7 -9 7 -24 38 -34
68 -22 72 -30 62 -10 -15 24 -96 79 -193 148 -264 85 -88 198 -155 198 -117 0
5 -7 7 -15 4 -17 -7 -19 4 -6 26 7 10 4 18 -10 28 -10 7 -19 22 -19 32 0 10
-4 22 -10 25 -18 11 -11 26 8 17 9 -5 31 -10 47 -10 17 0 49 -5 73 -10 24 -6
42 -6 42 -1 0 5 -6 9 -12 9 -7 0 -33 10 -58 22 -25 12 -48 20 -53 20 -4 -1 -7
3 -7 9 0 5 -10 9 -22 7 -15 -2 -23 2 -23 12 0 14 -14 28 -32 33 -5 1 -18 13
-30 27 -16 18 -23 21 -24 10 0 -8 -4 -5 -7 8 -4 13 -11 23 -17 23 -5 -1 -15
14 -22 32 -9 26 -12 28 -12 10 -1 -13 -5 -23 -10 -23 -5 0 -11 -9 -14 -20 -3
-13 3 -26 21 -40 l27 -21 -25 7 c-38 10 -44 19 -31 55 8 23 8 36 1 43 -8 8 -9
6 -5 -6 4 -11 2 -18 -4 -18 -6 0 -11 -7 -11 -15 0 -8 -4 -15 -9 -15 -11 0 -2
71 10 84 5 6 9 14 9 20 0 5 -6 2 -13 -9 -24 -32 -36 -9 -32 68 1 39 1 56 -2
37 -5 -41 -18 -58 -27 -35 -3 9 -2 13 4 10 18 -11 10 25 -10 45 -11 11 -20 16
-20 10z"/>
</g>
</svg>
